# xmcd
#
# Track frame offsets: 
#        183
#        94160
#        189065
#
# Disc length: 3912 seconds
#
# Revision: 6
# Processed by: cddbd v1.5.2PL0 Copyright (c) Steve Scherf et al.
# Submitted via: ExactAudioCopy v0.99pb5
#
DISCID=180f4603
DTITLE=Lapina,Vassiliev, Tarashchenko,Chistiakov - Rachmaninov: France
DTITLE=sca da Rimini op25
DYEAR=1992
DGENRE=Opera
TTITLE0=Prologue
TTITLE1=Tableau 1
TTITLE2=Tableau 2 - Epilogue
EXTD=YEAR: 2008
EXTT0=
EXTT1=
EXTT2=
PLAYORDER=
